<?xml version="1.0" encoding="iso-8859-1"?>
<!-- Generator: Adobe Illustrator 19.0.0, SVG Export Plug-In . SVG Version: 6.00 Build 0)  -->
<svg version="1.1" id="Capa_1" xmlns="http://www.w3.org/2000/svg" xmlns:xlink="http://www.w3.org/1999/xlink" x="0px" y="0px"
	 viewBox="0 0 512 512" style="enable-background:new 0 0 512 512;" xml:space="preserve">
<g>
	<path style="fill:#95A5A5;" d="M406.069,379.587v70.621c-0.029,9.739-7.916,17.626-17.655,17.655H17.655
		C7.917,467.834,0.029,459.946,0,450.207v-70.621H406.069z"/>
	<path style="fill:#BDC3C7;" d="M91.788,288.165c3.769-3.677,8.837-5.719,14.103-5.682h194.287
		c5.266-0.037,10.334,2.005,14.103,5.682l91.788,91.51l-203.034-0.088L0,379.675L91.788,288.165z"/>
	<g>
		<path style="fill:#ECF0F1;" d="M379.586,379.587v35.31c0,4.875-3.952,8.828-8.828,8.828s-8.828-3.952-8.828-8.828v-35.31H379.586z
			"/>
		<path style="fill:#ECF0F1;" d="M344.276,379.587v35.31c0,4.875-3.952,8.828-8.828,8.828s-8.828-3.952-8.828-8.828v-35.31H344.276z
			"/>
	</g>
	<g>
		<path style="fill:#65DDB9;" d="M44.138,414.897h-8.828c-4.875,0-8.828,3.952-8.828,8.828s3.952,8.828,8.828,8.828h8.828
			c4.875,0,8.828-3.952,8.828-8.828S49.014,414.897,44.138,414.897z"/>
		<path style="fill:#65DDB9;" d="M88.276,414.897h-8.828c-4.875,0-8.828,3.952-8.828,8.828s3.952,8.828,8.828,8.828h8.828
			c4.875,0,8.828-3.952,8.828-8.828S93.151,414.897,88.276,414.897z"/>
	</g>
	<path style="fill:#95A5A5;" d="M406.069,238.345v70.621c-0.029,9.739-7.916,17.627-17.655,17.655H17.655
		C7.917,326.593,0.029,318.705,0,308.966v-70.621H406.069z"/>
	<path style="fill:#BDC3C7;" d="M91.788,146.924c3.769-3.677,8.837-5.719,14.103-5.682h194.287
		c5.266-0.037,10.334,2.005,14.103,5.682l91.788,91.51l-203.034-0.088L0,238.434L91.788,146.924z"/>
	<g>
		<path style="fill:#ECF0F1;" d="M379.586,238.345v35.31c0,4.875-3.952,8.828-8.828,8.828s-8.828-3.952-8.828-8.828v-35.31H379.586z
			"/>
		<path style="fill:#ECF0F1;" d="M344.276,238.345v35.31c0,4.875-3.952,8.828-8.828,8.828s-8.828-3.952-8.828-8.828v-35.31H344.276z
			"/>
	</g>
	<g>
		<path style="fill:#65DDB9;" d="M44.138,273.656h-8.828c-4.875,0-8.828,3.952-8.828,8.828s3.952,8.828,8.828,8.828h8.828
			c4.875,0,8.828-3.952,8.828-8.828S49.014,273.656,44.138,273.656z"/>
		<path style="fill:#65DDB9;" d="M88.276,273.656h-8.828c-4.875,0-8.828,3.952-8.828,8.828s3.952,8.828,8.828,8.828h8.828
			c4.875,0,8.828-3.952,8.828-8.828S93.151,273.656,88.276,273.656z"/>
	</g>
	<path style="fill:#95A5A5;" d="M406.069,97.104v70.621c-0.029,9.739-7.916,17.627-17.655,17.655H17.655
		C7.917,185.351,0.029,177.463,0,167.725V97.104H406.069z"/>
	<path style="fill:#BDC3C7;" d="M91.788,5.683c3.769-3.677,8.837-5.719,14.103-5.682h194.287c5.266-0.037,10.334,2.005,14.103,5.682
		l91.788,91.51l-203.034-0.088L0,97.192L91.788,5.683z"/>
	<g>
		<path style="fill:#ECF0F1;" d="M379.586,97.104v35.31c0,4.875-3.952,8.828-8.828,8.828s-8.828-3.952-8.828-8.828v-35.31H379.586z"
			/>
		<path style="fill:#ECF0F1;" d="M344.276,97.104v35.31c0,4.875-3.952,8.828-8.828,8.828s-8.828-3.952-8.828-8.828v-35.31H344.276z"
			/>
	</g>
	<g>
		<path style="fill:#65DDB9;" d="M44.138,132.414h-8.828c-4.875,0-8.828,3.952-8.828,8.828c0,4.875,3.952,8.828,8.828,8.828h8.828
			c4.875,0,8.828-3.952,8.828-8.828C52.966,136.367,49.014,132.414,44.138,132.414z"/>
		<path style="fill:#65DDB9;" d="M88.276,132.414h-8.828c-4.875,0-8.828,3.952-8.828,8.828c0,4.875,3.952,8.828,8.828,8.828h8.828
			c4.875,0,8.828-3.952,8.828-8.828C97.104,136.367,93.151,132.414,88.276,132.414z"/>
	</g>
	<circle style="fill:#71C285;" cx="392.828" cy="392.828" r="119.172"/>
	<path style="fill:#E6E7E8;" d="M450.207,370.759h-35.31v-35.31c0-9.751-7.904-17.655-17.655-17.655h-8.828
		c-9.751,0-17.655,7.904-17.655,17.655v35.31h-35.31c-9.751,0-17.655,7.904-17.655,17.655v8.828c0,9.751,7.905,17.655,17.655,17.655
		h35.31v35.31c0,9.751,7.905,17.655,17.655,17.655h8.828c9.751,0,17.655-7.905,17.655-17.655v-35.31h35.31
		c9.751,0,17.655-7.905,17.655-17.655v-8.828C467.862,378.664,459.958,370.759,450.207,370.759z"/>
</g>
<g>
</g>
<g>
</g>
<g>
</g>
<g>
</g>
<g>
</g>
<g>
</g>
<g>
</g>
<g>
</g>
<g>
</g>
<g>
</g>
<g>
</g>
<g>
</g>
<g>
</g>
<g>
</g>
<g>
</g>
</svg>
